<mxfile modified="2023-03-13T10:28:24.770Z" host="app.diagrams.net" agent="5.0 (X11; Linux x86_64) AppleWebKit/537.36 (KHTML, like Gecko) Chrome/110.0.0.0 Safari/537.36" etag="T7ppAAPsYmT65Bm258Nx" version="21.0.6" type="github">
  <diagram id="Ht1M8jgEwFfnCIfOTk4-" name="Page-1">
    <mxGraphModel dx="1912" dy="1068" grid="1" gridSize="10" guides="1" tooltips="1" connect="1" arrows="1" fold="1" page="1" pageScale="1" pageWidth="1169" pageHeight="827" math="0" shadow="0">
      <root>
        <mxCell id="0" />
        <mxCell id="1" parent="0" />
        <mxCell id="mJ8GjuPjmgihEE6Xo0Pr-2" value="" style="rounded=1;whiteSpace=wrap;html=1;strokeWidth=3;fontSize=30;fillColor=none;strokeColor=#FF5314;" parent="1" vertex="1">
          <mxGeometry x="93" y="40" width="1020" height="1520" as="geometry" />
        </mxCell>
        <mxCell id="U6mfjkMRnxooP9xAoPuW-3" value="" style="shape=image;verticalLabelPosition=bottom;labelBackgroundColor=default;verticalAlign=top;aspect=fixed;imageAspect=0;image=data:image/png,iVBORw0KGgoAAAANSUhEUgAAAFgAAABXCAIAAAAPoRW2AAAACXBIWXMAAA7EAAAOxAGVKw4bAAAHmklEQVR4nO2caWwbxxXH38zsweUhUtFJ3ZJv64gtx0eTyInh1rXsGlYSBEXRwEWSpmkRFA2KtJ8d9EuBoEULFEnQBukF9AiaAk5Tt42tKE3qxDnkSHKglI5jU7RIWzdFUbvUXtMP3FIkJVMUJVJLYP+fuLtPc/xm5r23w6EQpRQsAeCNboBZZIEwZIEwxCRf/Oz9kxvVjg3R0/vPJD5bM8KQBcKQBcKQBcKQBcKQBcKQBcKQBcKQBcKQBcKQBcKQBcKQBcKQBcKQBcKQBcKQBcKQBcKQBcKQBcKQBcKQBcKQBcKQBcKQBcKQ2UHUudrua3yCIGZl07Up7xWsUQ7ujt3VX9lUun/g1utD4/9Q9YU8VWT2GRFXCV9xsPHRR9p/jvM2NYoDRFx21sNgLk+FFxOIvMoCYcgCYcgCYSh3EASxe6p77qk/RRCbjX19SXtXw6N21pONMYP5jspuJ1uWlTHi7vI+2OzZC4CysV++kBz+BgGqdm69p/5UrasVIdRa8cU3/S+MhC8ptwnyJVzlndXHd1efwIjcWXXs3/5fXZ25KKmR5RuEbQ0lHYebv+Pg7jjY+NjN6JVMrcdcrav1cPNTJXwFpfrwZN+Hob+EY6FcOpV8zjKbM1QOtvTo5u97nduTI5lO1RkpdPbqc1NSIKV0IHu8J++qedDGuBI3KdUj8kTvtecDkYG0wkttNd2bnym3N2FEllYta9JLHz8ma2L80sVVHN/ywwp7C8GLw7mgicMTvRcCv1OpvGJfks9QrQIEi217ax5qq/yynXUva6BTzTf1dp//l7ImIkBby7o6vSerHJtvV6A/fOmdwG+mpBEA8PDeTm9PW+WXlkUQVwKEnfXsq/1qe8WRZATJmomFPgr9dXiil4KeoUc5HiZz27yd3p5kCpRSShdrwojsKD9UZ++MiQpShIMNj2egAABNns776r8ZE5WYqBzd9ExH1dFkCkuPBFNKFyQ1JiodZSd2VR1LppBmXGqrub/xCRdfkX3vVuEj0hyRJM/1+l6OKdFD275R5qhL3NdkTRY1htMgi7PNlIIsagBAIMXjTkZvvHft1Z3ee1vK9yC0WLMsarKqgZbSlvG5kf9c/aPXvWVv4wmGLC5YTV7F6epVgEgulVL9pQvfnRFvAsCVsYtPdr1Y5qz9/8PcXXdcV8c//HP/s5quDNz455Gd397f3JPB+Fbk85cvPK3q8iehvrHItZ5dPwAAWYtdn/x4anqcceqEwSiLFuX4DqPpWpwCAOhUi6lziUdrP+U+MR/QdAUAKNCbkc8yG8eUqKobfnF8zg8Ak9HAmcGfhMI+ClSZQ04PB1mQWBWIAp3j57Bt8TOxZbAEAJbwGBGdagAQlm6dGXjucugtnarxp1SnUlQRXCxaiUU+Msu18tpVf+Tglq9zjLCzuuvwtsczG9d6tj+y/8duoRIAYkp0MHg+QSEuVdZlSVux0hyXRlpYWm41ZIUjsY5okj3B7P1bT+1rOmnnlo/TNLXwprKOJ7teGL75zpu+X4vy7FL7BUllOEyYTKOew4yg0dh0n++3iWudah+NvDYVHY2H0ngbJTnaH/h7RJrMUM5kNPDWld/HL/pHXp+VJpIfp1GIKdFPgn2yKgLAwI03gmFfsjOysc7Ohu5v3ft8e80hlvBLqgIxouh6prEhp0+fTlxcDP4pg6md9bRVHhm48cYr/T/yT6UkhWNz1weD56MLM01l7b6x9ybmRgCof2pwKNjLMUK1e3PaEpVV6ezlX/zr0xen54PxO6HZK0Oj5wGgzrMdobThodcnB1/pf3YweC5+Lcqzl4O9o+HhlvI9HLPoRHjWvq36C/ML4dCsbykLXQeWT8nWDtR9LfF5dZklr5aFpj/PYFNq98aUqKTMJd+sL229e9PDWyr3YURUXbkUOPuB/0wCQZrqPDsOtDy0vepujAmldDT86cXrr/731rvJmVtCDs6zu6H7QPMDds5NKR2ZHvrA/5pvbHljAODtDCeQxKjkmGIDAKUwH17QtVzc4Q5vV2f9sb8N/TQSm1jRuKW883jb94ZC597+7A+361VCHCN0tz7lnxoaHD23om9yeLiEs8gdBABoqj4/KxcgkiLAmd8UciwWg8PNYYJhjT9cIQx2lHBrzh5XVj4oAADVITavLg1zueQRmEE2u9m/EMkgVdZjopJ2M6eNGYQ4gaEUFkR1ZWtTSpE0JjWtyD2z5ARC2CLe8pSiKZMi954ghOwlLFO8LFLdxJq6gRCyOdn09Kc4tdZOYIIcbj6bF36Tax1GE2Fkc7IFCKh51XqAQMDyxOYo4oAK67gfwfKEs912A9r8WjcQccfJcMXqOde53YKTRaQovcU6g0AYOdwcLkIW6z+TMUaCK6uvhU2lvCxpwmChpMhY5Mu3sRzhhGIKInl08vF9sfyVv77KIwiEEC8wxRJQ89tKhJHgYosiiOR9uBBCgotF2OwsCjFvCYPtLrO/lRVoAWPG7MlFgUAghFiO8Cbe8i2oS+ftDMObNKAWOrYJTsac25yFbhNCyOZkTBhQN2BwMMGC+YLIxszSeEA11Zbvhi1XhiO8w0QBdSP9Fstj8wRUZP3P27jMGMk2RBYIQ/8DuYektZi+j7MAAAAASUVORK5CYII=;" parent="1" vertex="1">
          <mxGeometry x="610" y="380" width="88" height="87" as="geometry" />
        </mxCell>
        <mxCell id="mJ8GjuPjmgihEE6Xo0Pr-1" value="&lt;font style=&quot;font-size: 60px;&quot;&gt;NAS&lt;/font&gt;" style="rounded=0;whiteSpace=wrap;html=1;dashed=1;strokeWidth=5;fillColor=none;" parent="1" vertex="1">
          <mxGeometry x="437" y="1084" width="443" height="416" as="geometry" />
        </mxCell>
        <mxCell id="mJ8GjuPjmgihEE6Xo0Pr-3" value="" style="rounded=0;whiteSpace=wrap;html=1;dashed=1;strokeWidth=5;fillColor=none;" parent="1" vertex="1">
          <mxGeometry x="437" y="543" width="443" height="399" as="geometry" />
        </mxCell>
        <mxCell id="mJ8GjuPjmgihEE6Xo0Pr-4" value="" style="rounded=0;whiteSpace=wrap;html=1;dashed=1;strokeWidth=5;fillColor=none;" parent="1" vertex="1">
          <mxGeometry x="437" y="343" width="443" height="166" as="geometry" />
        </mxCell>
        <mxCell id="mJ8GjuPjmgihEE6Xo0Pr-5" value="&lt;div&gt;Client&lt;/div&gt;&lt;div&gt;&lt;br&gt;&lt;/div&gt;" style="outlineConnect=0;gradientColor=none;fontColor=#545B64;strokeColor=none;fillColor=#879196;dashed=0;verticalLabelPosition=bottom;verticalAlign=top;align=center;html=1;fontSize=12;fontStyle=0;aspect=fixed;shape=mxgraph.aws4.illustration_desktop;pointerEvents=1;labelBackgroundColor=#ffffff;" parent="1" vertex="1">
          <mxGeometry x="213" y="382" width="100" height="91" as="geometry" />
        </mxCell>
        <mxCell id="mJ8GjuPjmgihEE6Xo0Pr-6" value="" style="sketch=0;outlineConnect=0;fontColor=#232F3E;gradientColor=none;fillColor=#2E27AD;strokeColor=none;dashed=0;verticalLabelPosition=bottom;verticalAlign=top;align=center;html=1;fontSize=12;fontStyle=0;aspect=fixed;pointerEvents=1;shape=mxgraph.aws4.rds_postgresql_instance_alt;" parent="1" vertex="1">
          <mxGeometry x="742" y="383.5" width="80" height="80" as="geometry" />
        </mxCell>
        <mxCell id="mJ8GjuPjmgihEE6Xo0Pr-9" value="" style="endArrow=classic;startArrow=classic;html=1;rounded=1;entryX=-0.01;entryY=0.504;entryDx=0;entryDy=0;entryPerimeter=0;jumpSize=60;strokeColor=default;sketch=0;strokeWidth=4;" parent="1" target="mJ8GjuPjmgihEE6Xo0Pr-4" edge="1">
          <mxGeometry width="50" height="50" relative="1" as="geometry">
            <mxPoint x="320" y="427" as="sourcePoint" />
            <mxPoint x="380" y="392" as="targetPoint" />
          </mxGeometry>
        </mxCell>
        <mxCell id="mJ8GjuPjmgihEE6Xo0Pr-10" value="https" style="edgeLabel;html=1;align=center;verticalAlign=middle;resizable=0;points=[];fontSize=30;" parent="mJ8GjuPjmgihEE6Xo0Pr-9" vertex="1" connectable="0">
          <mxGeometry x="-0.1285" y="-2" relative="1" as="geometry">
            <mxPoint x="7" y="-1" as="offset" />
          </mxGeometry>
        </mxCell>
        <mxCell id="mJ8GjuPjmgihEE6Xo0Pr-11" value="&lt;font color=&quot;#FF642B&quot;&gt;Draw.io&lt;/font&gt;" style="text;html=1;align=center;verticalAlign=middle;resizable=0;points=[];autosize=1;strokeColor=none;fillColor=none;fontSize=30;" parent="1" vertex="1">
          <mxGeometry x="213" y="140" width="120" height="50" as="geometry" />
        </mxCell>
        <mxCell id="mJ8GjuPjmgihEE6Xo0Pr-13" value="" style="edgeStyle=orthogonalEdgeStyle;rounded=0;orthogonalLoop=1;jettySize=auto;html=1;strokeWidth=6;fontSize=30;fontColor=#FF6E42;exitX=1;exitY=0.5;exitDx=0;exitDy=0;exitPerimeter=0;" parent="1" source="mJ8GjuPjmgihEE6Xo0Pr-15" edge="1">
          <mxGeometry relative="1" as="geometry">
            <mxPoint x="700.3000000000002" y="668" as="targetPoint" />
          </mxGeometry>
        </mxCell>
        <mxCell id="mJ8GjuPjmgihEE6Xo0Pr-14" style="edgeStyle=orthogonalEdgeStyle;rounded=0;orthogonalLoop=1;jettySize=auto;html=1;strokeWidth=6;fontSize=30;fontColor=#FF6E42;" parent="1" source="mJ8GjuPjmgihEE6Xo0Pr-15" target="mJ8GjuPjmgihEE6Xo0Pr-16" edge="1">
          <mxGeometry relative="1" as="geometry" />
        </mxCell>
        <mxCell id="mJ8GjuPjmgihEE6Xo0Pr-15" value="" style="outlineConnect=0;dashed=0;verticalLabelPosition=bottom;verticalAlign=top;align=center;html=1;shape=mxgraph.aws3.android;fillColor=#205E00;gradientColor=none;" parent="1" vertex="1">
          <mxGeometry x="635" y="706" width="38.5" height="44" as="geometry" />
        </mxCell>
        <mxCell id="mJ8GjuPjmgihEE6Xo0Pr-12" value="" style="shape=image;html=1;verticalAlign=top;verticalLabelPosition=bottom;labelBackgroundColor=#ffffff;imageAspect=0;aspect=fixed;image=https://cdn1.iconfinder.com/data/icons/unicons-line-vol-5/24/react-128.png" parent="1" vertex="1">
          <mxGeometry x="680" y="434" width="40" height="40" as="geometry" />
        </mxCell>
        <mxCell id="mJ8GjuPjmgihEE6Xo0Pr-16" value="" style="shape=image;html=1;verticalAlign=top;verticalLabelPosition=bottom;labelBackgroundColor=#ffffff;imageAspect=0;aspect=fixed;image=https://cdn1.iconfinder.com/data/icons/bootstrap-vol-3/16/filetype-js-128.png" parent="1" vertex="1">
          <mxGeometry x="583" y="622" width="46" height="46" as="geometry" />
        </mxCell>
        <mxCell id="mJ8GjuPjmgihEE6Xo0Pr-18" style="edgeStyle=orthogonalEdgeStyle;rounded=0;orthogonalLoop=1;jettySize=auto;html=1;exitX=0.5;exitY=0;exitDx=0;exitDy=0;entryX=0.5;entryY=1;entryDx=0;entryDy=0;entryPerimeter=0;fontSize=30;fontColor=#FF6E42;strokeWidth=6;" parent="1" source="mJ8GjuPjmgihEE6Xo0Pr-19" target="mJ8GjuPjmgihEE6Xo0Pr-15" edge="1">
          <mxGeometry relative="1" as="geometry" />
        </mxCell>
        <mxCell id="mJ8GjuPjmgihEE6Xo0Pr-19" value="" style="shape=image;html=1;verticalAlign=top;verticalLabelPosition=bottom;labelBackgroundColor=#ffffff;imageAspect=0;aspect=fixed;image=https://cdn1.iconfinder.com/data/icons/bootstrap-vol-3/16/filetype-jsx-128.png" parent="1" vertex="1">
          <mxGeometry x="631.25" y="834" width="46" height="46" as="geometry" />
        </mxCell>
        <mxCell id="mJ8GjuPjmgihEE6Xo0Pr-20" value="&lt;div style=&quot;font-size: 30px;&quot;&gt;&lt;font style=&quot;font-size: 30px;&quot; color=&quot;#FF6E42&quot;&gt;Babel transpiles the &lt;br&gt;&lt;/font&gt;&lt;/div&gt;&lt;div style=&quot;font-size: 30px;&quot;&gt;&lt;font style=&quot;font-size: 30px;&quot; color=&quot;#FF6E42&quot;&gt;.jsx into .js and &lt;br&gt;&lt;/font&gt;&lt;/div&gt;&lt;div style=&quot;font-size: 30px;&quot;&gt;&lt;font style=&quot;font-size: 30px;&quot; color=&quot;#FF6E42&quot;&gt;Webpack then &lt;br&gt;&lt;/font&gt;&lt;/div&gt;&lt;div style=&quot;font-size: 30px;&quot;&gt;&lt;font style=&quot;font-size: 30px;&quot; color=&quot;#FF6E42&quot;&gt;bundles all &lt;br&gt;&lt;/font&gt;&lt;/div&gt;&lt;div style=&quot;font-size: 30px;&quot;&gt;&lt;font style=&quot;font-size: 30px;&quot; color=&quot;#FF6E42&quot;&gt;of the .js files and &lt;br&gt;&lt;/font&gt;&lt;/div&gt;&lt;div style=&quot;font-size: 30px;&quot;&gt;&lt;font style=&quot;font-size: 30px;&quot; color=&quot;#FF6E42&quot;&gt;the index.css&lt;br&gt;&lt;/font&gt;&lt;/div&gt;&lt;div style=&quot;font-size: 30px;&quot;&gt;&lt;font style=&quot;font-size: 30px;&quot; color=&quot;#FF6E42&quot;&gt;into two files&lt;/font&gt;&lt;/div&gt;" style="text;html=1;align=center;verticalAlign=middle;resizable=0;points=[];autosize=1;strokeColor=none;fillColor=none;fontColor=#FF6E42;labelBackgroundColor=default;" parent="1" vertex="1">
          <mxGeometry x="760" y="668" width="290" height="270" as="geometry" />
        </mxCell>
        <mxCell id="mJ8GjuPjmgihEE6Xo0Pr-21" value="&lt;div&gt;&lt;font style=&quot;font-size: 30px;&quot;&gt;The front end is &lt;br&gt;&lt;/font&gt;&lt;/div&gt;&lt;div&gt;&lt;font style=&quot;font-size: 30px;&quot;&gt;integrated into an &lt;br&gt;&lt;/font&gt;&lt;/div&gt;&lt;div&gt;&lt;font style=&quot;font-size: 30px;&quot;&gt;Expressjs app. This makes&lt;/font&gt;&lt;/div&gt;&lt;div&gt;&lt;font style=&quot;font-size: 30px;&quot;&gt;it easier to deploy and &lt;br&gt;&lt;/font&gt;&lt;/div&gt;&lt;div&gt;&lt;font style=&quot;font-size: 30px;&quot;&gt;maintain. Apache then&lt;/font&gt;&lt;/div&gt;&lt;div&gt;&lt;font style=&quot;font-size: 30px;&quot;&gt;proxies/ reverse proxies the&lt;/font&gt;&lt;/div&gt;&lt;div&gt;&lt;font style=&quot;font-size: 30px;&quot;&gt;node app instantiated &lt;br&gt;&lt;/font&gt;&lt;/div&gt;&lt;div&gt;&lt;font style=&quot;font-size: 30px;&quot;&gt;by PM2.&lt;br&gt;&lt;/font&gt;&lt;/div&gt;&lt;div&gt;&lt;font style=&quot;font-size: 30px;&quot;&gt;&lt;br&gt;&lt;/font&gt;&lt;/div&gt;" style="text;html=1;align=center;verticalAlign=middle;resizable=0;points=[];autosize=1;strokeColor=none;fillColor=none;fontColor=#FF6E42;labelBackgroundColor=default;" parent="1" vertex="1">
          <mxGeometry x="178" y="507" width="390" height="340" as="geometry" />
        </mxCell>
        <mxCell id="mJ8GjuPjmgihEE6Xo0Pr-23" style="edgeStyle=orthogonalEdgeStyle;rounded=0;orthogonalLoop=1;jettySize=auto;html=1;entryX=0.5;entryY=1;entryDx=0;entryDy=0;strokeWidth=6;fontSize=60;" parent="1" source="mJ8GjuPjmgihEE6Xo0Pr-1" target="mJ8GjuPjmgihEE6Xo0Pr-3" edge="1">
          <mxGeometry relative="1" as="geometry" />
        </mxCell>
        <mxCell id="mJ8GjuPjmgihEE6Xo0Pr-25" value="&lt;div style=&quot;font-size: 30px;&quot;&gt;&lt;font style=&quot;font-size: 30px;&quot; color=&quot;#FF6E42&quot;&gt;Videos are NFS mounted and &lt;br&gt;&lt;/font&gt;&lt;/div&gt;&lt;div style=&quot;font-size: 30px;&quot;&gt;&lt;font style=&quot;font-size: 30px;&quot; color=&quot;#FF6E42&quot;&gt;accessed&amp;nbsp; over a Network &lt;br&gt;&lt;/font&gt;&lt;/div&gt;&lt;div style=&quot;font-size: 30px;&quot;&gt;&lt;font style=&quot;font-size: 30px;&quot; color=&quot;#FF6E42&quot;&gt;Attached Storage&lt;/font&gt;&lt;/div&gt;&lt;div style=&quot;font-size: 30px;&quot;&gt;&lt;font style=&quot;font-size: 30px;&quot; color=&quot;#FF6E42&quot;&gt;so that we avoid having too&lt;/font&gt;&lt;/div&gt;&lt;div style=&quot;font-size: 30px;&quot;&gt;&lt;font style=&quot;font-size: 30px;&quot; color=&quot;#FF6E42&quot;&gt;much data on the web server &lt;br&gt;&lt;/font&gt;&lt;/div&gt;" style="text;html=1;align=center;verticalAlign=middle;resizable=0;points=[];autosize=1;strokeColor=none;fillColor=none;fontColor=#FF6E42;labelBackgroundColor=default;" parent="1" vertex="1">
          <mxGeometry x="145" y="1005" width="420" height="190" as="geometry" />
        </mxCell>
        <mxCell id="mJ8GjuPjmgihEE6Xo0Pr-27" value="" style="shape=image;html=1;verticalAlign=top;verticalLabelPosition=bottom;labelBackgroundColor=#ffffff;imageAspect=0;aspect=fixed;image=https://cdn1.iconfinder.com/data/icons/bootstrap-vol-3/16/filetype-jsx-128.png" parent="1" vertex="1">
          <mxGeometry x="685.76" y="834" width="46" height="46" as="geometry" />
        </mxCell>
        <mxCell id="mJ8GjuPjmgihEE6Xo0Pr-28" value="" style="shape=image;html=1;verticalAlign=top;verticalLabelPosition=bottom;labelBackgroundColor=#ffffff;imageAspect=0;aspect=fixed;image=https://cdn1.iconfinder.com/data/icons/bootstrap-vol-3/16/filetype-jsx-128.png" parent="1" vertex="1">
          <mxGeometry x="570" y="834" width="46" height="46" as="geometry" />
        </mxCell>
        <mxCell id="mJ8GjuPjmgihEE6Xo0Pr-30" value="" style="shape=image;html=1;verticalAlign=top;verticalLabelPosition=bottom;labelBackgroundColor=#ffffff;imageAspect=0;aspect=fixed;image=https://cdn1.iconfinder.com/data/icons/bootstrap-vol-3/16/filetype-scss-128.png" parent="1" vertex="1">
          <mxGeometry x="512" y="834" width="46" height="46" as="geometry" />
        </mxCell>
        <mxCell id="mJ8GjuPjmgihEE6Xo0Pr-31" value="" style="shape=image;html=1;verticalAlign=top;verticalLabelPosition=bottom;labelBackgroundColor=#ffffff;imageAspect=0;aspect=fixed;image=https://cdn1.iconfinder.com/data/icons/bootstrap-vol-3/16/filetype-scss-128.png" parent="1" vertex="1">
          <mxGeometry x="735.2" y="834" width="46" height="46" as="geometry" />
        </mxCell>
        <mxCell id="U6mfjkMRnxooP9xAoPuW-1" value="" style="shape=image;verticalLabelPosition=bottom;labelBackgroundColor=default;verticalAlign=top;aspect=fixed;imageAspect=0;image=data:image/png,iVBORw0KGgoAAAANSUhEUgAAAIkAAACCCAIAAAD9gXxdAAAACXBIWXMAAA7EAAAOxAGVKw4bAAAWS0lEQVR4nO2de3wTZbrHn8wkzQVC29Ar7Wlty63cxSMI7mmQwmEFD9aFArYgLDexgsoBFhYFF13xfvnIkXVhVz0fwBXQRUUUP2uF4uFWoVCgF5C2tKRt0qZJ05CZJM1Mzh8vHYdcZiZpkiaa3yd/ZN48mffNfOd93+d55p2JyOl0QlRhKayvGxCVV0XZhK+ibMJX4mDstMtobqhtbKxv7Gg2tDW1a+vaO7Umh80RjLpCKbFUHJcSm5KTmJSRODBNlZmdmTU8c0C8MkjViQLoC1Rfqjl79NyJf5xuvahjChVJMgDAYvBA1dK3ou0UABBtVqYkdVzy9GVTRt4zYuykUYGtKwBsuozm41+f+GLHN81nWwFAkST7xZAQItpOIVRpE1MfXvPglJl5gepJvWJDEMR3h44deuNI60Xdrw2JuxCkxNyBD5ZMK1j6kEKh6OUO/WdTefrKRy/sqzl6LUqFLUQobWLqU2+v6uUo5yebD1/bs3/j51Eq3oQIzX+14Pd/WOT3Tvxhs7Fwa+WnVf3T+/ld669EtzSWsXNHPrtrg38zkG9suozmtQ/+sflsaxSMQN3SWBJzB7538k0/8PjGZtl9q6NgfBVtp/oN7OcHHh/yAhsLt0bB+CEsBm+v6Xi+aLvPXxRo9+Fre8JzjqGBdn/1daNc1T+9X83Rax++tsenbwka0ypPX9k4+flwAIOOu42ySnGZTCSTgxQA5CI524Z0kgBAgs3qtCJLAMDCIHN4S2N59dQ24Y41PxuCIJ6d82JjRVNfucs00DbKKscVsSJlHBY7QKRMwZLRR3KRzNu3SKcVAEgnaXJ2dTnNnbTJ5DQjtH3FibZT8Vnxb3/zssCJhz/X+d2hYzVHr4W+0yAkseI4lShukDhlIKbiIOEuZCwXyVQQj0pIp7WDNrTQWi3dRlKEFJeFGBIWgzefbf1q3zdFq+cJsefpN11G89NTN5paTKHsNOjsjhfF5uBZviIRIgSpjmpAPSmUhHzy2XiadfzrE60XdSEDg6hk4Rl5kknqmPvT8UEBBwMAcpEsHR+kjrn/N5KJWXgGU28IhHy2r/Z9I8SYp98su2+1scEYAjYMlaH44GDw4BDptF6jrjdQTRCSqQjNOn8/8z+8llzzTfWlmtAENCRFpIiTJ0ju8YkKGpq6odv9IwlIhA+GcpFsrHjUUHxwefd5rUMnx3ubP+YWmnUqT1/hddi42Jw9ei6grfIg1F2myx5QYfG8xqTTqqV17XSHlm5DngIAIBfZRcxHMpFMJYpLxAamYMncqOQimTrmfg3ecs5xEYLfgSp+uMDLhmtM+/3dJUH1AmigB2EpEyTjuc0MtPEm3dxIaZhZwacDx4REclyRiaf/G5bGex6Ud1e00Nrg4aHtVOyg2A8v7OQ288qmy2iep1oSpAENHa9/F49LxwdxmGmoljqqweg0QYBOZLYHyF11A9VY6agKHp5bGssBw0fc3prXMa2htjEITQIAoIGWiWQTxHdznL8NVONVqs7qtEJAhxe0K6PTdM5x8QpVOwzPycIzPVpm4ZmxogHljgtWpzVIhBpqG7mHNa+1NtYHhQ0Co5ZM9gZGQ7WU2U9WOqrsTjsGWDCOC9qt3WmvdFSV2U9qqBaPZiosXi2ZLBPJguRh8x5hr7+8o9kQ6MYADXS8KFYtmexxWiad1vLuinOOi0anKTTxIAYY6kPl3RUox+MiuUimlkyOF8UGAw/vEfY6prU1taPlS4FVBp7uEYyGaqlwXApxlA49o1wLrdXa234jmejem+UiWQaebnSYAluvIklW++NPfG3zIm1de2BbAwAYYJWOqgbKtS9XOq746rlyXBHw42IBqvdf1mPubdNQLUFyCvQ3/e03ndqgeM8YYOW28yAFZhIu765o6L4hJOJjvOFYcVwqljRQpFKI5OgCAdMXmfQz4SQ7nIZWus3k6BR4mUCOK8pt59slHYxbr6FazjkuBmXOi8HtXXZuG69sgrdEFh0ChKfMftLoNPGCQZFmijg5B88aGMMV8LPTz+kwaCwAKbmd2dQ6dLy5ZzmuaKG1ZfaT6pj7gwcGiTR7mOHYCsp6aHfd0ljYoZIcV1Q6qpCXzP3jf86zxfiZZ0OZzXR8ECkRlDdDDsJR+/fIUeT4FcFWKCZeuVJWsnepTqO/s2LM/cezhSaMLDyjQDpzrHhU7xOgKG9WIJ2ZhWdwz0aobS6FOo1+3aESSuEhfRckhYKNpcMyu3jW1kPrXPBwCHnbM2KmjhUHeAE4AIwVj8qTTPLJM9Zp9FsPrZtekN/a1kJSRMCb5FEhGtMIgphekA+H4M1HdvKuBkXdRSAV0mlFCwQYyUVy3k6mwuLVMfdXOq40UE08g6qdItqsCAxBEADQQbYPlCcGO10NIWODxIsHxTe8eTYmIW1wdtqddpfTHwMsRhQjJP08VjxqoEhV4bjkzQCBWXeoZHpBPru8s9sAAMHGE1I2wIeHO8+GkDRRGqPThBbQoFPe/cS3O+0tTm1D9w0pLuO+tp2OD1KI5OWOC+4TjDcwSCHA0wcrTqYX5K87VMK+vQiJBjoVS/IGpoFqLOs+VW47jzI6clzBPRYxNkan6aTtTFn3Kfe4EkmFxQ/Dc9znHqLNWrJ3qUcwSJ3dhqDOPX2zGgjhcffcau3X3I+ggTYetX9fbjtvd9p5kbgLQbI77eW282X2k+55M4+R/y2NpWTv0tnFs7h3HlQ8fbaibnpBvrvnhsJSNp4GqvFf1mOISi9rlOMKo9P0Jfk1e/8eA0zkLvOCQQoenr5c7egND5Nzq3RcKbedD+CYjvpQue18peMKeAeDvDLhuw0SnlD7Ai5CrsELj7yZnJ7AFKKUKMoaBGOyleOKBqoJrfTsPRikYLgGfb9KeHpB/oa9T/qaNUBi8s0kRaCXwPQzBpjJaXYp1Gn0G/Y+6QcYpID3nj7uN0izi2fJ+8mEhKWMUCQUL4qNw2IHilQKye3l6ij93EmbfF1lcEtj8a/HsBXY3hMWbABgekE+ude6c+EHQrIGGGDeVhmi9DP0rAhEq3N4CSGvrJdgkAKIJ1zYAADyi7jxoGVTo8UjeLMyzIrAy45q7gVNAt1l4QoUnr6fb9iaXTyrZO9S97CU0VjxyAmS8cJz0nKRbIJk/FjxSG8GAQeDFJC5J7zYQA+eWxqLSzkNdCae7m3JErey8MzR4lx3HyFIYJB6jyfs2ADA7OJZwrMGQuQx8tdp9MEDg9RLPGE037DlMe5hX8xmChuoxiZKwzjEsSJlxp3dy1uAuWHvk0EFg9SbuSdM2YB3PJWOKgDIwjOZZVPA8pWNTpPRYbrsqBkvHpOODwpU5N8b+Y0nfNkAZ9agne5A3pfLcWc2zzkudjgNjZTGY48JGRgk//CE43zDFsoauLgGGGC86/wxwNCyDbZuaSyhGcrc5cfcE9b9Bslj3OMOxj3G9C/tHzz52nvCvd8g8cY9sSLlICwlRhTjzaDPwSD51HsioN8gMb3HZYWYyw1WHm9ruqWxPLZjfp+DQRLeeyKj3yB5DEvR3IPu09BQLR7BlOxdKvCW/tBIYO+JmH6DhM791xe+5+K5Ia/MfUFTyOIYX4V6D7ciqd8geVyGiLyySAGDZKNt3AaRxwa8XMyOLDBCFC5s6uvqu4yuFyI55BEPIz/AdBnN9XX1wu1DoHBhY7XYlheu8hWPe1gKALc0lid2LPEVzPLCVVYLzyATYoULGwA4U1qxvHCVrk3Hb9ojd88Nucs+eWW6Nt3qxc+cKa3woa0hURixiYX+NaXXNizf7FPvYfDQdsoPMF1G84blmy8cvhQL/X1vcnAVRmwAYECC8sLhS6sXP+MHnvY2o69gCIJYvfiZC4cvDUgI1v899EZhF98gPMsLV3305W7hj42fXTxr8OjsEWNyhVdEEMSS2StqSq+FJxgIt36DNCBBWV96Y8nsFeh+F4H6hYGB8GQDANIEaX3pjekjHvIJj0ARBDEn79H60hvhDAbClg0ASBOktkbbnLxHA4sHgWk/r5cmSAO422AofNkAgDRB2n5ev2T2Cp9cAw6hoSwiwECYs4Gewc3XsNSjCIJYtWBNTem1iAAD4c8GAKQJ0prSa7461i4iCGL9ik1h6y57VASwAX/jHkaox/zw8ekIAgORwgZ6gScSewxSxLABVlgqHE+E9hikSGIDPWHp8sJVAh3rVQvWRGKPQYowNtDjufHGPQRBzJtWHLlgIBLZQE/cw501WDJ7RfhH/tyKSDbQkzXwmHMjCOKx2csiKI7xpkhlAz1xj0vWAE3+ET2UMYpgNgAwIEHJDksj1132qJA86jeYfwPCxD31dfXrV2wKtruMi0P3P0Ben3m/aMRK3gdKCtfIh4YQnCsZddq2az9c9/uX2/Q2cZzY0enwe46hHNTQ/xicnJLEbfbDwVOBwiPH+32nPcxhEKLrnpf/WdvUdoPbpjdTtzRBSjmo3uwBF+PVh2uroZa3Ir+r8FUhYoPF4Hel53R2G0nKdclSoNT70znc/LqQ+gJxkng53vd/RBkpCrWfFsUjXH3gQ0fxCFTfxDdRPELUZ7FnFA+v+jIvEMXDrT7O2UTxcKjv82lRPN7U92wgiseLwoINRPF4klc2YmmobzH4teFRxvLc8eOVTVxKLG2nAt0eHv168FAOShU/kNvGa+cYcJei6eiNuGRVoFvFLysdsGsTYSt7Z7c0h2dC8cpGnCo6D5eTTLGBbhW/cAjd9au+UisY5g17mNvGK5vhucMAQCKSBLhRUfUoJTGF28Brt8rMuAsgMHdWROVJ5qHDhnJbeGeTlRHo1kR1h4aPGsZt4JVNclLy5DFqG8nz/6DhIBtp15MmPWnqdobuTwR7Ixtpz80Yk5yUzG3GFcT8ds60U5cq0iCBw8ZFNEkbwGwDdIzMafIs9/IEGCCVx6Am6qHLZQ9SkChBLgExaz+uBipQYnIMAPSkyQaGe8ZNnDz5vsTkhNrqqx/v/4Jdr7da2M1A0pMmpjopSBLkPztBd/4oJDMASEHFNhMuPXQ9tWwVrxmXGzdjxgxfa22FxkZdtdPZ5XR2HS8tayYb3MsfLZmLTvNHS+aiEvbLYLn5m5mTsERg7N0NBo1LoUm6mWxYWbJIq9Oeu3Dm3ffe2bL1uX2f7HE6uw4cONBMNtAkDQB60rR8/WKP+xk5aTgzKjST+rXrVzEf7TnwPtNyADCAufr6j+zvWiyWuut1a9evYpv5JCHHlovNhIn33jNuhN/Dmnpq3gvbXvS19cwzBZT9PS8zQwat0PjCthfffe8d95GhsLCwqrK6FXx6yrf5kbkFzEaeOi8tMRPRBQD37qtQKLJzsl9+/SU/fqCNtI8eMnjCxHt5LXkSM4+vXL6yZEUaZHGbedOWrc/VVl/9bP/X3GYEQez734/jEm6PDzdbbnabKaaksLAQlR88ePC2vYFUT8rfsvU5tFl9qeb9v/715o3moiXzkPGIMblrSp7e/8FnLrUcOXKE2TToDRIQA4CNtKsn5bMPVnJS8u8KC3bt3JMArkPWiy/8uV2nX/hYMbJfuWrF1ue3+HRM9NC8fe2fBJk6OaXVaXMzxiRAWpo8S8gLALQ6LXsPddfrkmTp7PI1JU9LQSUF1ZqSp5la2E1C1bm38J5xE5nCAwcOMN9NS8wEUDLlx0vLiuYvlIIqFTKloNq0fjPTEvdaUEW7du5GNsdLy9Cbs2fKAaDHQFl3vQ6VF81fCAD5D0xDmxaLRfjBSZNnpUJmbsYYl0PkTTxpg+Sk5LWb1uihWRDnO4UeR5adk334+D95a6m7XodeZ8+Upw5Jokka/ZJ0VTZjFhev7MGmHDns9r/mnig70dzemAADiuYvLJq/8PPPvty1azcArCxZhMkx9nCUnZPN1FJVWS1NFNMkTZN0kiw9/z+nIpsZ+Y+gGxNGjR6pnpTvPp4PHzEs/4Fpjz+xEm1qW7U+HZxWaFy7aQ2vh4bEn2wuXly0b88nVadr2V6NEL3z1rvP/PdT2TnZEybeu2n9ZovZAt4XtGbn3GaQkpoS04+rIpqkpSCR9bu9zq+25iqAUg/NL760jdkJ0qlTZ5ov3vHwO8aAuTPEAOY5D89E5fV19TYwHDlypLCwUKFQ5P92StnpUpfxfMvW55ixlCCId956VwpCU4420j56yN3zF8wXaM/PRqFQbPvz1in5aj9mnZUrHv/yqy8UCsWWbc86bF6z2gRBXLlchd6TFtJu4fI+MDlmI7uZ59ANzx3mLX9BGO74n2mCIH48c07eT45q6dmVYeXKFcjgZqOmaP7CTr0JbRYXF219/jXGI2B2gpyR+rr6lSseLz32HXv45ZYemj99/+MB8UKX0gu6tqaemrdp/WY//MXSY9+9+cZbAKBQKDjaZL5lnnjfBPSakq9u/akNhS8cqrp6Bb3JU+cBKAGU8+YWjRk6nvEXdG26mqY7/iha26qdkq9marG1O2iSHj3kbiY+V0/N2/fJnhVPLEeb2TnZBTNnULI7Tin0c9CnI3JHMvMcr5rJhk3rN6un5gm0B+HXPV9+/aWCmXObSaF/co8kBdXW57eUfX+C20zZX3mApZGThrucrS5KgAGvbn8TvU9OSq6qPFs0/2G7xV648HezZt1+FOSu93cDKKXwc642JTWFXUvqkKRWMMx6+EGO0b9oybw2q4ZdUlt9dfdf/obev/L69tFDBguJMfSkST0pf8u2Z3kt75AQh4HxSXIzxkhBJdBPQ/5YKmTCnc6bu5/mooKZc9Gcj3wBpjz/gWks50rJOGDuYrwstp/mIvWkfACoqqxGm7t27maOCdMwi8UiBRXbT1tT8jQAMJvIw0yFTI5jkiRLT1dlmwxdQg4yWz6sF1AoFGcu/l92RrqeNHGYWcwWXZuuy2ju6OgAAEyOJcnSixcs1LXp2OVIXUYzKme/XHbI2LAL0+QJr7yxvXjBoupLNexygiB2/+VvE++bwEwDFsLiXoWuTddtceQ/ME3WT4o29x/cz5wQ+z/4rL6uXtemc9iolSWLAMx6fUeX0cw0ft1TG9G35BLFrp27OeJcPWmKUcScqzklfJph5PXeKG8iCKK4cPHnX3/qcQ6kSRpL7HlvBkx0m323s1uixF3KaSeNeWow+4vedoiEkmCjhwwePX4kADQ3tV6/fr25vZHdNq+1tAPIgPnI1u5gHFEbaZcmiplKwQq4CnfiFNMGtoEqTmXQdHo8Vs1kg3pS/pdHDvkBBvxgg/THDc++8sb2BEhzd6yZqcJlPvdY7nFeEfJFtmykHZOJTFYCJUndzThqEd5aVOKy6a1hNtKuh+ZN6zdv2fas8CdbushPNgBQ9v2Jdev+cP7iWY+EfrWiSboVGkcPuXvH++/45JW5y3820JMHe/uVHTVNl6KEUF/JzRizdtOa+Qvm+zeOsdUrNkhdRvP+T/bveHvn5Z+ug9t1kV+8mOtDo4cMXrO2ZPac/xKYkuFVANgwKj/747fffvuPvx/sCfqUzIUy3lgyUkSTdDc4zEDaoBvlI3Izxjy6rHDGjBlC0v4+KZBsGOnadLVXrl67ek3brq04W9mmaW/8yfVv6SJUmUMyktITx08cm5KYMnTY0OGjhgWql7grKGyiCoh+IUPNL1JRNuGrKJvwVZRN+CrKJnwVZRO++n/9K5GlNMevTQAAAABJRU5ErkJggg==;" parent="1" vertex="1">
          <mxGeometry x="700" y="1330" width="137" height="130" as="geometry" />
        </mxCell>
        <mxCell id="U6mfjkMRnxooP9xAoPuW-2" value="" style="shape=image;html=1;verticalAlign=top;verticalLabelPosition=bottom;labelBackgroundColor=#ffffff;imageAspect=0;aspect=fixed;image=https://cdn1.iconfinder.com/data/icons/bootstrap-vol-3/16/filetype-css-128.png" parent="1" vertex="1">
          <mxGeometry x="679.25" y="620" width="44" height="44" as="geometry" />
        </mxCell>
        <mxCell id="U6mfjkMRnxooP9xAoPuW-8" value="" style="dashed=0;outlineConnect=0;html=1;align=center;labelPosition=center;verticalLabelPosition=bottom;verticalAlign=top;shape=mxgraph.webicons.apache;gradientColor=#DFDEDE" parent="1" vertex="1">
          <mxGeometry x="490" y="383.5" width="80" height="80" as="geometry" />
        </mxCell>
        <mxCell id="JUnkcvWwJDRz5hunavrS-1" value="&lt;div style=&quot;font-size: 30px;&quot;&gt;pm2 spawns the node express app&lt;/div&gt;&lt;div style=&quot;font-size: 30px;&quot;&gt;and serves it on localhost:5003&lt;/div&gt;" style="text;html=1;align=center;verticalAlign=middle;resizable=0;points=[];autosize=1;strokeColor=none;fillColor=none;fontColor=#FF6E42;labelBackgroundColor=default;" vertex="1" parent="1">
          <mxGeometry x="616" y="474" width="490" height="90" as="geometry" />
        </mxCell>
      </root>
    </mxGraphModel>
  </diagram>
</mxfile>
